CrispyWide Black-MaxGrade-shadow.ufo
<glyph name="exclam" format="2">
  <advance width="1282"/>
  <unicode hex="0021"/>
  <outline>
    <contour>
      <point x="1308" y="113" type="line"/>
      <point x="1308" y="543" type="line"/>
      <point x="1041" y="543" type="line"/>
      <point x="1139" y="642" type="line"/>
      <point x="1233" y="760" type="line"/>
      <point x="1233" y="1602" type="line"/>
      <point x="318" y="1602" type="line"/>
      <point x="167" y="1451" type="line"/>
      <point x="73" y="1299" type="line"/>
      <point x="73" y="491" type="line"/>
      <point x="371" y="491" type="line"/>
      <point x="303" y="428" type="line"/>
      <point x="303" y="-2" type="line"/>
      <point x="1184" y="-2" type="line"/>
    </contour>
    <contour>
      <point x="427" y="543" type="line"/>
      <point x="375" y="495" type="line"/>
      <point x="77" y="495" type="line"/>
      <point x="77" y="1297" type="line"/>
      <point x="171" y="1449" type="line"/>
      <point x="320" y="1598" type="line"/>
      <point x="1229" y="1598" type="line"/>
      <point x="1229" y="762" type="line"/>
      <point x="1137" y="644" type="line"/>
      <point x="1035" y="543" type="line"/>
    </contour>
    <contour>
      <point x="381" y="495" type="line"/>
      <point x="429" y="539" type="line"/>
      <point x="1031" y="539" type="line"/>
      <point x="987" y="495" type="line"/>
    </contour>
    <contour>
      <point x="989" y="491" type="line"/>
      <point x="1037" y="539" type="line"/>
      <point x="1304" y="539" type="line"/>
      <point x="1304" y="115" type="line"/>
      <point x="1182" y="2" type="line"/>
      <point x="307" y="2" type="line"/>
      <point x="307" y="426" type="line"/>
      <point x="377" y="491" type="line"/>
    </contour>
    <component base="period" xOffset="76"/>
    <component base="period" xOffset="76"/>
    <component base="period" xOffset="76"/>
    <component base="period" xOffset="76"/>
  </outline>
</glyph>
<glyph name="comma" format="2">
  <advance width="1828"/>
  <unicode hex="002C"/>
  <outline>
    <contour>
      <point x="1842" y="544" type="line"/>
      <point x="1042" y="544" type="line"/>
      <point x="892" y="393" type="line"/>
      <point x="742" y="213" type="line"/>
      <point x="742" y="-152" type="line"/>
      <point x="1161" y="-152" type="line"/>
      <point x="1161" y="-494" type="line"/>
      <point x="1238" y="-494" type="line"/>
      <point x="1691" y="-151" type="line"/>
      <point x="1842" y="0" type="line"/>
    </contour>
    <contour>
      <point x="1165" y="-148" type="line"/>
      <point x="746" y="-148" type="line"/>
      <point x="746" y="211" type="line"/>
      <point x="894" y="391" type="line"/>
      <point x="1044" y="540" type="line"/>
      <point x="1838" y="540" type="line"/>
      <point x="1838" y="2" type="line"/>
      <point x="1689" y="-147" type="line"/>
      <point x="1236" y="-490" type="line"/>
      <point x="1165" y="-490" type="line"/>
    </contour>
  </outline>
</glyph>
<glyph name="zero" format="2">
  <advance width="5326"/>
  <unicode hex="0030"/>
  <outline>
    <contour>
      <point x="159" y="1451" type="line"/>
      <point x="159" y="-152" type="line"/>
      <point x="5036" y="-152" type="line"/>
      <point x="5187" y="-1" type="line"/>
      <point x="5187" y="1602" type="line"/>
      <point x="310" y="1602" type="line"/>
    </contour>
    <contour>
      <point x="163" y="-148" type="line"/>
      <point x="163" y="1449" type="line"/>
      <point x="312" y="1598" type="line"/>
      <point x="5183" y="1598" type="line"/>
      <point x="5183" y="1" type="line"/>
      <point x="5034" y="-148" type="line"/>
    </contour>
    <contour>
      <point x="4093" y="597" type="line"/>
      <point x="4093" y="853" type="line"/>
      <point x="1253" y="853" type="line"/>
      <point x="1253" y="597" type="line"/>
    </contour>
    <contour>
      <point x="1257" y="601" type="line"/>
      <point x="1257" y="849" type="line"/>
      <point x="4089" y="849" type="line"/>
      <point x="4089" y="601" type="line"/>
    </contour>
  </outline>
</glyph>
<glyph name="five" format="2">
  <advance width="4987"/>
  <unicode hex="0035"/>
  <outline>
    <contour>
      <point x="4969" y="1602" type="line"/>
      <point x="189" y="1602" type="line"/>
      <point x="38" y="1451" type="line"/>
      <point x="38" y="431" type="line"/>
      <point x="63" y="431" type="line"/>
      <point x="39" y="407" type="line"/>
      <point x="39" y="-152" type="line"/>
      <point x="4819" y="-152" type="line"/>
      <point x="4970" y="-1" type="line"/>
      <point x="4970" y="1028" type="line"/>
      <point x="4894" y="1028" type="line"/>
      <point x="4969" y="1103" type="line"/>
    </contour>
    <contour>
      <point x="73" y="435" type="line"/>
      <point x="42" y="435" type="line"/>
      <point x="42" y="1449" type="line"/>
      <point x="191" y="1598" type="line"/>
      <point x="4965" y="1598" type="line"/>
      <point x="4965" y="1105" type="line"/>
      <point x="4884" y="1024" type="line"/>
      <point x="4966" y="1024" type="line"/>
      <point x="4966" y="1" type="line"/>
      <point x="4817" y="-148" type="line"/>
      <point x="43" y="-148" type="line"/>
      <point x="43" y="405" type="line"/>
    </contour>
  </outline>
</glyph>
<glyph name="B" format="2">
  <advance width="5248"/>
  <unicode hex="0042"/>
  <outline>
    <contour>
      <point x="4900" y="1602" type="line"/>
      <point x="310" y="1602" type="line"/>
      <point x="159" y="1451" type="line"/>
      <point x="159" y="-152" type="line"/>
      <point x="4629" y="-152" type="line"/>
      <point x="4779" y="-1" type="line"/>
      <point x="4779" y="-1" type="line"/>
      <point x="4779" y="-1" type="line"/>
      <point x="5261" y="535" type="line"/>
      <point x="5262" y="535" type="line"/>
      <point x="5262" y="1049" type="line"/>
      <point x="4900" y="1049" type="line"/>
    </contour>
    <contour>
      <point x="4896" y="1045" type="line"/>
      <point x="5258" y="1045" type="line"/>
      <point x="5258" y="537" type="line"/>
      <point x="4777" y="1" type="line"/>
      <point x="4627" y="-148" type="line"/>
      <point x="163" y="-148" type="line"/>
      <point x="163" y="1449" type="line"/>
      <point x="312" y="1598" type="line"/>
      <point x="4896" y="1598" type="line"/>
    </contour>
  </outline>
</glyph>
<glyph name="H" format="2">
  <advance width="5390"/>
  <unicode hex="0048"/>
  <outline>
    <contour>
      <point x="1107" y="-152" type="line"/>
      <point x="1258" y="-1" type="line"/>
      <point x="1258" y="379" type="line"/>
      <point x="4151" y="379" type="line"/>
      <point x="4151" y="-152" type="line"/>
      <point x="5100" y="-152" type="line"/>
      <point x="5251" y="-1" type="line"/>
      <point x="5251" y="1602" type="line"/>
      <point x="4302" y="1602" type="line"/>
      <point x="4151" y="1451" type="line"/>
      <point x="4151" y="1069" type="line"/>
      <point x="1258" y="1069" type="line"/>
      <point x="1258" y="1602" type="line"/>
      <point x="310" y="1602" type="line"/>
      <point x="159" y="1451" type="line"/>
      <point x="159" y="-152" type="line"/>
    </contour>
    <contour>
      <point x="4155" y="383" type="line"/>
      <point x="1254" y="383" type="line"/>
      <point x="1254" y="1" type="line"/>
      <point x="1105" y="-148" type="line"/>
      <point x="163" y="-148" type="line"/>
      <point x="163" y="1449" type="line"/>
      <point x="312" y="1598" type="line"/>
      <point x="1254" y="1598" type="line"/>
      <point x="1254" y="1065" type="line"/>
      <point x="4155" y="1065" type="line"/>
      <point x="4155" y="1449" type="line"/>
      <point x="4304" y="1598" type="line"/>
      <point x="5247" y="1598" type="line"/>
      <point x="5247" y="1" type="line"/>
      <point x="5098" y="-148" type="line"/>
      <point x="4155" y="-148" type="line"/>
    </contour>
  </outline>
</glyph>
<glyph name="I" format="2">
  <advance width="4558"/>
  <unicode hex="0049"/>
  <outline>
    <contour>
      <point x="4540" y="-1" type="line"/>
      <point x="4540" y="538" type="line"/>
      <point x="2834" y="538" type="line"/>
      <point x="2834" y="912" type="line"/>
      <point x="4389" y="912" type="line"/>
      <point x="4540" y="1063" type="line"/>
      <point x="4540" y="1602" type="line"/>
      <point x="189" y="1602" type="line"/>
      <point x="38" y="1451" type="line"/>
      <point x="38" y="912" type="line"/>
      <point x="1735" y="912" type="line"/>
      <point x="1735" y="538" type="line"/>
      <point x="189" y="538" type="line"/>
      <point x="38" y="387" type="line"/>
      <point x="38" y="-152" type="line"/>
      <point x="4389" y="-152" type="line"/>
    </contour>
    <contour>
      <point x="2830" y="916" type="line"/>
      <point x="2830" y="534" type="line"/>
      <point x="4536" y="534" type="line"/>
      <point x="4536" y="1" type="line"/>
      <point x="4387" y="-148" type="line"/>
      <point x="42" y="-148" type="line"/>
      <point x="42" y="385" type="line"/>
      <point x="191" y="534" type="line"/>
      <point x="1739" y="534" type="line"/>
      <point x="1739" y="916" type="line"/>
      <point x="42" y="916" type="line"/>
      <point x="42" y="1449" type="line"/>
      <point x="191" y="1598" type="line"/>
      <point x="4536" y="1598" type="line"/>
      <point x="4536" y="1065" type="line"/>
      <point x="4387" y="916" type="line"/>
    </contour>
  </outline>
</glyph>
<glyph name="N" format="2">
  <advance width="5032"/>
  <unicode hex="004E"/>
  <outline>
    <contour>
      <point x="1103" y="-152" type="line"/>
      <point x="1254" y="-1" type="line"/>
      <point x="1254" y="912" type="line"/>
      <point x="1309" y="912" type="line"/>
      <point x="3119" y="-152" type="line"/>
      <point x="4743" y="-152" type="line"/>
      <point x="4894" y="-1" type="line"/>
      <point x="4894" y="1602" type="line"/>
      <point x="3950" y="1602" type="line"/>
      <point x="3799" y="1451" type="line"/>
      <point x="3799" y="559" type="line"/>
      <point x="1937" y="1602" type="line"/>
      <point x="310" y="1602" type="line"/>
      <point x="159" y="1451" type="line"/>
      <point x="160" y="-152" type="line"/>
    </contour>
    <contour>
      <point x="1311" y="916" type="line"/>
      <point x="1250" y="916" type="line"/>
      <point x="1250" y="1" type="line"/>
      <point x="1101" y="-148" type="line"/>
      <point x="164" y="-148" type="line"/>
      <point x="163" y="1449" type="line"/>
      <point x="312" y="1598" type="line"/>
      <point x="1935" y="1598" type="line"/>
      <point x="3803" y="553" type="line"/>
      <point x="3803" y="1449" type="line"/>
      <point x="3952" y="1598" type="line"/>
      <point x="4890" y="1598" type="line"/>
      <point x="4890" y="1" type="line"/>
      <point x="4741" y="-148" type="line"/>
      <point x="3121" y="-148" type="line"/>
    </contour>
  </outline>
</glyph>
<glyph name="Q" format="2">
  <advance width="5340"/>
  <unicode hex="0051"/>
  <outline>
    <contour>
      <point x="489" y="1451" type="line"/>
      <point x="489" y="1451" type="line"/>
      <point x="489" y="1451" type="line"/>
      <point x="6" y="919" type="line"/>
      <point x="6" y="-150" type="line"/>
      <point x="2144" y="-150" type="line"/>
      <point x="2144" y="-304" type="line"/>
      <point x="2992" y="-304" type="line"/>
      <point x="3143" y="-153" type="line"/>
      <point x="3143" y="-150" type="line"/>
      <point x="5050" y="-150" type="line"/>
      <point x="5201" y="1" type="line"/>
      <point x="5201" y="1602" type="line"/>
      <point x="639" y="1602" type="line"/>
    </contour>
    <contour>
      <point x="2148" y="-146" type="line"/>
      <point x="10" y="-146" type="line"/>
      <point x="10" y="917" type="line"/>
      <point x="491" y="1449" type="line"/>
      <point x="641" y="1598" type="line"/>
      <point x="5197" y="1598" type="line"/>
      <point x="5197" y="3" type="line"/>
      <point x="5048" y="-146" type="line"/>
      <point x="3139" y="-146" type="line"/>
      <point x="3139" y="-151" type="line"/>
      <point x="2990" y="-300" type="line"/>
      <point x="2148" y="-300" type="line"/>
    </contour>
    <contour>
      <point x="4106" y="536" type="line"/>
      <point x="4106" y="916" type="line"/>
      <point x="1138" y="916" type="line"/>
      <point x="1101" y="875" type="line"/>
      <point x="1101" y="536" type="line"/>
    </contour>
    <contour>
      <point x="1105" y="540" type="line"/>
      <point x="1105" y="873" type="line"/>
      <point x="1140" y="912" type="line"/>
      <point x="4102" y="912" type="line"/>
      <point x="4102" y="540" type="line"/>
    </contour>
  </outline>
</glyph>
<glyph name="R" format="2">
  <advance width="5021"/>
  <unicode hex="0052"/>
  <outline>
    <contour>
      <point x="1107" y="-154" type="line"/>
      <point x="1258" y="-3" type="line"/>
      <point x="1258" y="92" type="line"/>
      <point x="3361" y="92" type="line"/>
      <point x="3771" y="1" type="line"/>
      <point x="3771" y="-152" type="line"/>
      <point x="4719" y="-152" type="line"/>
      <point x="4870" y="-1" type="line"/>
      <point x="4870" y="92" type="line"/>
      <point x="4883" y="92" type="line"/>
      <point x="5034" y="243" type="line"/>
      <point x="5034" y="1600" type="line"/>
      <point x="310" y="1600" type="line"/>
      <point x="159" y="1449" type="line"/>
      <point x="159" y="-154" type="line"/>
    </contour>
    <contour>
      <point x="4866" y="96" type="line"/>
      <point x="4866" y="1" type="line"/>
      <point x="4717" y="-148" type="line"/>
      <point x="3775" y="-148" type="line"/>
      <point x="3775" y="5" type="line"/>
      <point x="3361" y="96" type="line"/>
      <point x="1254" y="96" type="line"/>
      <point x="1254" y="-1" type="line"/>
      <point x="1105" y="-150" type="line"/>
      <point x="163" y="-150" type="line"/>
      <point x="163" y="1447" type="line"/>
      <point x="312" y="1596" type="line"/>
      <point x="5030" y="1596" type="line"/>
      <point x="5030" y="245" type="line"/>
      <point x="4881" y="96" type="line"/>
    </contour>
    <contour>
      <point x="3938" y="778" type="line"/>
      <point x="3938" y="914" type="line"/>
      <point x="1254" y="914" type="line"/>
      <point x="1254" y="778" type="line"/>
    </contour>
    <contour>
      <point x="1258" y="782" type="line"/>
      <point x="1258" y="910" type="line"/>
      <point x="3934" y="910" type="line"/>
      <point x="3934" y="782" type="line"/>
    </contour>
  </outline>
</glyph>
<glyph name="T" format="2">
  <advance width="4544"/>
  <unicode hex="0054"/>
  <outline>
    <contour>
      <point x="4527" y="1602" type="line"/>
      <point x="189" y="1602" type="line"/>
      <point x="38" y="1451" type="line"/>
      <point x="38" y="912" type="line"/>
      <point x="1731" y="912" type="line"/>
      <point x="1731" y="-152" type="line"/>
      <point x="2681" y="-152" type="line"/>
      <point x="2832" y="-1" type="line"/>
      <point x="2832" y="912" type="line"/>
      <point x="4376" y="912" type="line"/>
      <point x="4527" y="1063" type="line"/>
    </contour>
    <contour>
      <point x="1735" y="916" type="line"/>
      <point x="42" y="916" type="line"/>
      <point x="42" y="1449" type="line"/>
      <point x="191" y="1598" type="line"/>
      <point x="4523" y="1598" type="line"/>
      <point x="4523" y="1065" type="line"/>
      <point x="4374" y="916" type="line"/>
      <point x="2828" y="916" type="line"/>
      <point x="2828" y="1" type="line"/>
      <point x="2679" y="-148" type="line"/>
      <point x="1735" y="-148" type="line"/>
    </contour>
  </outline>
</glyph>
<glyph name="V" format="2">
  <advance width="4861"/>
  <unicode hex="0056"/>
  <outline>
    <contour>
      <point x="4398" y="2" type="line"/>
      <point x="4382" y="2" type="line"/>
      <point x="4725" y="383" type="line"/>
      <point x="4725" y="1452" type="line"/>
      <point x="3929" y="1452" type="line"/>
      <point x="3929" y="1605" type="line"/>
      <point x="3775" y="1451" type="line"/>
      <point x="3775" y="573" type="line"/>
      <point x="3742" y="537" type="line"/>
      <point x="3598" y="388" type="line"/>
      <point x="1109" y="388" type="line"/>
      <point x="1109" y="1452" type="line"/>
      <point x="313" y="1452" type="line"/>
      <point x="313" y="1605" type="line"/>
      <point x="159" y="1451" type="line"/>
      <point x="159" y="-152" type="line"/>
      <point x="4244" y="-152" type="line"/>
    </contour>
    <contour>
      <point x="3744" y="535" type="line"/>
      <point x="3778" y="571" type="line"/>
      <point x="3779" y="571" type="line"/>
      <point x="3779" y="1449" type="line"/>
      <point x="3925" y="1595" type="line"/>
      <point x="3925" y="1448" type="line"/>
      <point x="4721" y="1448" type="line"/>
      <point x="4721" y="385" type="line"/>
      <point x="4374" y="-2" type="line"/>
      <point x="4388" y="-2" type="line"/>
      <point x="4242" y="-148" type="line"/>
      <point x="163" y="-148" type="line"/>
      <point x="163" y="1449" type="line"/>
      <point x="309" y="1595" type="line"/>
      <point x="309" y="1448" type="line"/>
      <point x="1105" y="1448" type="line"/>
      <point x="1105" y="384" type="line"/>
      <point x="3600" y="384" type="line"/>
      <point x="3744" y="535" type="line"/>
      <point x="3744" y="535" type="line"/>
    </contour>
  </outline>
</glyph>
<glyph name="X" format="2">
  <advance width="5016"/>
  <unicode hex="0058"/>
  <outline>
    <contour>
      <point x="954" y="-152" type="line"/>
      <point x="1105" y="-1" type="line"/>
      <point x="1105" y="359" type="line"/>
      <point x="3585" y="359" type="line"/>
      <point x="3931" y="129" type="line"/>
      <point x="3931" y="-152" type="line"/>
      <point x="4879" y="-152" type="line"/>
      <point x="5030" y="-1" type="line"/>
      <point x="5030" y="534" type="line"/>
      <point x="4877" y="626" type="line"/>
      <point x="5027" y="775" type="line"/>
      <point x="5027" y="1602" type="line"/>
      <point x="4079" y="1602" type="line"/>
      <point x="3928" y="1451" type="line"/>
      <point x="3928" y="1049" type="line"/>
      <point x="1360" y="1049" type="line"/>
      <point x="1108" y="1192" type="line"/>
      <point x="1108" y="1602" type="line"/>
      <point x="160" y="1602" type="line"/>
      <point x="9" y="1451" type="line"/>
      <point x="9" y="827" type="line"/>
      <point x="144" y="757" type="line"/>
      <point x="6" y="620" type="line"/>
      <point x="6" y="-152" type="line"/>
    </contour>
    <contour>
      <point x="4866" y="628" type="line"/>
      <point x="5026" y="532" type="line"/>
      <point x="5026" y="1" type="line"/>
      <point x="4877" y="-148" type="line"/>
      <point x="3935" y="-148" type="line"/>
      <point x="3935" y="131" type="line"/>
      <point x="3587" y="363" type="line"/>
      <point x="1101" y="363" type="line"/>
      <point x="1101" y="1" type="line"/>
      <point x="952" y="-148" type="line"/>
      <point x="10" y="-148" type="line"/>
      <point x="10" y="618" type="line"/>
      <point x="150" y="759" type="line"/>
      <point x="13" y="829" type="line"/>
      <point x="13" y="1449" type="line"/>
      <point x="162" y="1598" type="line"/>
      <point x="1104" y="1598" type="line"/>
      <point x="1104" y="1190" type="line"/>
      <point x="1358" y="1045" type="line"/>
      <point x="3932" y="1045" type="line"/>
      <point x="3932" y="1449" type="line"/>
      <point x="4081" y="1598" type="line"/>
      <point x="5023" y="1598" type="line"/>
      <point x="5023" y="777" type="line"/>
      <point x="4874" y="628" type="line"/>
    </contour>
  </outline>
</glyph>
<glyph name="C.wide" format="2">
  <advance width="4352"/>
  <outline>
    <contour>
      <point x="4334" y="1602" type="line"/>
      <point x="516" y="1602" type="line"/>
      <point x="366" y="1451" type="line"/>
      <point x="366" y="1451" type="line"/>
      <point x="366" y="1451" type="line"/>
      <point x="-116" y="914" type="line"/>
      <point x="-116" y="-152" type="line"/>
      <point x="4184" y="-152" type="line"/>
      <point x="4335" y="-1" type="line"/>
      <point x="4335" y="538" type="line"/>
      <point x="983" y="538" type="line"/>
      <point x="983" y="870" type="line"/>
      <point x="1020" y="912" type="line"/>
      <point x="4183" y="912" type="line"/>
      <point x="4334" y="1063" type="line"/>
    </contour>
    <contour>
      <point x="979" y="872" type="line"/>
      <point x="979" y="534" type="line"/>
      <point x="4331" y="534" type="line"/>
      <point x="4331" y="1" type="line"/>
      <point x="4182" y="-148" type="line"/>
      <point x="-112" y="-148" type="line"/>
      <point x="-112" y="912" type="line"/>
      <point x="368" y="1449" type="line"/>
      <point x="518" y="1598" type="line"/>
      <point x="4330" y="1598" type="line"/>
      <point x="4330" y="1065" type="line"/>
      <point x="4181" y="916" type="line"/>
      <point x="1018" y="916" type="line"/>
    </contour>
  </outline>
</glyph>
<glyph name="F.wide" format="2">
  <advance width="4911"/>
  <outline>
    <contour>
      <point x="1107" y="-152" type="line"/>
      <point x="1258" y="-1" type="line"/>
      <point x="1258" y="196" type="line"/>
      <point x="4363" y="196" type="line"/>
      <point x="4514" y="347" type="line"/>
      <point x="4514" y="886" type="line"/>
      <point x="1258" y="886" type="line"/>
      <point x="1258" y="912" type="line"/>
      <point x="4742" y="912" type="line"/>
      <point x="4893" y="1063" type="line"/>
      <point x="4893" y="1602" type="line"/>
      <point x="310" y="1602" type="line"/>
      <point x="159" y="1451" type="line"/>
      <point x="159" y="-152" type="line"/>
    </contour>
    <contour>
      <point x="1254" y="916" type="line"/>
      <point x="1254" y="882" type="line"/>
      <point x="4510" y="882" type="line"/>
      <point x="4510" y="349" type="line"/>
      <point x="4361" y="200" type="line"/>
      <point x="1254" y="200" type="line"/>
      <point x="1254" y="1" type="line"/>
      <point x="1105" y="-148" type="line"/>
      <point x="163" y="-148" type="line"/>
      <point x="163" y="1449" type="line"/>
      <point x="312" y="1598" type="line"/>
      <point x="4889" y="1598" type="line"/>
      <point x="4889" y="1065" type="line"/>
      <point x="4740" y="916" type="line"/>
    </contour>
  </outline>
</glyph>
<glyph name="M.narrow" format="2">
  <advance width="7169"/>
  <outline>
    <contour>
      <point x="1108" y="-152" type="line"/>
      <point x="1259" y="-1" type="line"/>
      <point x="1259" y="799" type="line"/>
      <point x="1377" y="911" type="line"/>
      <point x="3105" y="911" type="line"/>
      <point x="3105" y="-61" type="line"/>
      <point x="4055" y="-61" type="line"/>
      <point x="4206" y="90" type="line"/>
      <point x="4206" y="911" type="line"/>
      <point x="6084" y="911" type="line"/>
      <point x="6084" y="-152" type="line"/>
      <point x="7033" y="-152" type="line"/>
      <point x="7184" y="-1" type="line"/>
      <point x="7184" y="1601" type="line"/>
      <point x="801" y="1601" type="line"/>
      <point x="651" y="1450" type="line"/>
      <point x="651" y="1450" type="line"/>
      <point x="651" y="1450" type="line"/>
      <point x="159" y="951" type="line"/>
      <point x="159" y="-152" type="line"/>
    </contour>
    <contour>
      <point x="6088" y="915" type="line"/>
      <point x="4202" y="915" type="line"/>
      <point x="4202" y="92" type="line"/>
      <point x="4053" y="-57" type="line"/>
      <point x="3109" y="-57" type="line"/>
      <point x="3109" y="915" type="line"/>
      <point x="1375" y="915" type="line"/>
      <point x="1255" y="801" type="line"/>
      <point x="1255" y="1" type="line"/>
      <point x="1106" y="-148" type="line"/>
      <point x="163" y="-148" type="line"/>
      <point x="163" y="949" type="line"/>
      <point x="653" y="1448" type="line"/>
      <point x="803" y="1597" type="line"/>
      <point x="7180" y="1597" type="line"/>
      <point x="7180" y="1" type="line"/>
      <point x="7031" y="-148" type="line"/>
      <point x="6088" y="-148" type="line"/>
    </contour>
  </outline>
</glyph>
<glyph name="S.wide" format="2">
  <advance width="4986"/>
  <outline>
    <contour>
      <point x="521" y="1451" type="line"/>
      <point x="521" y="1451" type="line"/>
      <point x="521" y="1451" type="line"/>
      <point x="40" y="917" type="line"/>
      <point x="40" y="426" type="line"/>
      <point x="109" y="426" type="line"/>
      <point x="38" y="355" type="line"/>
      <point x="38" y="-152" type="line"/>
      <point x="4336" y="-152" type="line"/>
      <point x="4486" y="-1" type="line"/>
      <point x="4486" y="-1" type="line"/>
      <point x="4486" y="-1" type="line"/>
      <point x="4967" y="532" type="line"/>
      <point x="4967" y="533" type="line"/>
      <point x="4968" y="533" type="line"/>
      <point x="4969" y="1059" type="line"/>
      <point x="4946" y="1059" type="line"/>
      <point x="4982" y="1095" type="line"/>
      <point x="4981" y="1602" type="line"/>
      <point x="671" y="1602" type="line"/>
    </contour>
    <contour>
      <point x="119" y="430" type="line"/>
      <point x="44" y="430" type="line"/>
      <point x="44" y="915" type="line"/>
      <point x="523" y="1449" type="line"/>
      <point x="673" y="1598" type="line"/>
      <point x="4977" y="1598" type="line"/>
      <point x="4978" y="1097" type="line"/>
      <point x="4936" y="1055" type="line"/>
      <point x="4965" y="1055" type="line"/>
      <point x="4964" y="535" type="line"/>
      <point x="4484" y="1" type="line"/>
      <point x="4334" y="-148" type="line"/>
      <point x="42" y="-148" type="line"/>
      <point x="42" y="353" type="line"/>
    </contour>
  </outline>
</glyph>
<glyph name="U.alt" format="2">
  <advance width="4864"/>
  <outline>
    <contour>
      <point x="4799" y="-1" type="line"/>
      <point x="4799" y="1602" type="line"/>
      <point x="3850" y="1602" type="line"/>
      <point x="3699" y="1451" type="line"/>
      <point x="3699" y="538" type="line"/>
      <point x="1182" y="538" type="line"/>
      <point x="1182" y="1602" type="line"/>
      <point x="233" y="1602" type="line"/>
      <point x="82" y="1451" type="line"/>
      <point x="82" y="-152" type="line"/>
      <point x="4648" y="-152" type="line"/>
    </contour>
    <contour>
      <point x="1178" y="534" type="line"/>
      <point x="3703" y="534" type="line"/>
      <point x="3703" y="1449" type="line"/>
      <point x="3852" y="1598" type="line"/>
      <point x="4795" y="1598" type="line"/>
      <point x="4795" y="1" type="line"/>
      <point x="4646" y="-148" type="line"/>
      <point x="86" y="-148" type="line"/>
      <point x="86" y="1449" type="line"/>
      <point x="235" y="1598" type="line"/>
      <point x="1178" y="1598" type="line"/>
    </contour>
  </outline>
</glyph>
<glyph name="Y.wide" format="2">
  <advance width="4874"/>
  <outline>
    <contour>
      <point x="4808" y="-1" type="line"/>
      <point x="4808" y="1602" type="line"/>
      <point x="3859" y="1602" type="line"/>
      <point x="3708" y="1451" type="line"/>
      <point x="3708" y="1101" type="line"/>
      <point x="1176" y="1101" type="line"/>
      <point x="1176" y="1602" type="line"/>
      <point x="227" y="1602" type="line"/>
      <point x="76" y="1451" type="line"/>
      <point x="76" y="442" type="line"/>
      <point x="165" y="442" type="line"/>
      <point x="79" y="356" type="line"/>
      <point x="79" y="-152" type="line"/>
      <point x="4657" y="-152" type="line"/>
    </contour>
    <contour>
      <point x="175" y="446" type="line"/>
      <point x="80" y="446" type="line"/>
      <point x="80" y="1449" type="line"/>
      <point x="229" y="1598" type="line"/>
      <point x="1172" y="1598" type="line"/>
      <point x="1172" y="1097" type="line"/>
      <point x="3712" y="1097" type="line"/>
      <point x="3712" y="1449" type="line"/>
      <point x="3861" y="1598" type="line"/>
      <point x="4804" y="1598" type="line"/>
      <point x="4804" y="1" type="line"/>
      <point x="4655" y="-148" type="line"/>
      <point x="83" y="-148" type="line"/>
      <point x="83" y="354" type="line"/>
    </contour>
  </outline>
</glyph>
<glyph name="Z.wide" format="2">
  <advance width="5185"/>
  <outline>
    <contour>
      <point x="5168" y="-1" type="line"/>
      <point x="5168" y="497" type="line"/>
      <point x="3803" y="497" type="line"/>
      <point x="5027" y="589" type="line"/>
      <point x="5178" y="740" type="line"/>
      <point x="5178" y="1602" type="line"/>
      <point x="212" y="1602" type="line"/>
      <point x="61" y="1451" type="line"/>
      <point x="61" y="952" type="line"/>
      <point x="1006" y="952" type="line"/>
      <point x="174" y="890" type="line"/>
      <point x="23" y="739" type="line"/>
      <point x="23" y="-152" type="line"/>
      <point x="5017" y="-152" type="line"/>
    </contour>
    <contour>
      <point x="1070" y="953" type="line"/>
      <point x="1070" y="956" type="line"/>
      <point x="65" y="956" type="line"/>
      <point x="65" y="1449" type="line"/>
      <point x="214" y="1598" type="line"/>
      <point x="5174" y="1598" type="line"/>
      <point x="5174" y="742" type="line"/>
      <point x="5025" y="593" type="line"/>
      <point x="3740" y="496" type="line"/>
      <point x="3740" y="493" type="line"/>
      <point x="5164" y="493" type="line"/>
      <point x="5164" y="1" type="line"/>
      <point x="5015" y="-148" type="line"/>
      <point x="27" y="-148" type="line"/>
      <point x="27" y="737" type="line"/>
      <point x="176" y="886" type="line"/>
    </contour>
  </outline>
</glyph>
<glyph name="one.narrow" format="2">
  <advance width="3121"/>
  <outline>
    <contour>
      <point x="2982" y="1602" type="line"/>
      <point x="189" y="1602" type="line"/>
      <point x="38" y="1451" type="line"/>
      <point x="38" y="912" type="line"/>
      <point x="1883" y="912" type="line"/>
      <point x="1883" y="-152" type="line"/>
      <point x="2831" y="-152" type="line"/>
      <point x="2982" y="-1" type="line"/>
    </contour>
    <contour>
      <point x="1887" y="916" type="line"/>
      <point x="42" y="916" type="line"/>
      <point x="42" y="1449" type="line"/>
      <point x="191" y="1598" type="line"/>
      <point x="2978" y="1598" type="line"/>
      <point x="2978" y="1" type="line"/>
      <point x="2829" y="-148" type="line"/>
      <point x="1887" y="-148" type="line"/>
    </contour>
  </outline>
</glyph>
<glyph name="six.wide" format="2">
  <advance width="4829"/>
  <outline>
    <contour>
      <point x="519" y="1602" type="line"/>
      <point x="36" y="1319" type="line"/>
      <point x="-115" y="1168" type="line"/>
      <point x="-115" y="-152" type="line"/>
      <point x="4814" y="-152" type="line"/>
      <point x="4965" y="-1" type="line"/>
      <point x="4965" y="1036" type="line"/>
      <point x="4906" y="1036" type="line"/>
      <point x="4964" y="1094" type="line"/>
      <point x="4964" y="1602" type="line"/>
    </contour>
    <contour>
      <point x="4896" y="1032" type="line"/>
      <point x="4961" y="1032" type="line"/>
      <point x="4961" y="1" type="line"/>
      <point x="4812" y="-148" type="line"/>
      <point x="-111" y="-148" type="line"/>
      <point x="-111" y="1166" type="line"/>
      <point x="38" y="1315" type="line"/>
      <point x="521" y="1598" type="line"/>
      <point x="4960" y="1598" type="line"/>
      <point x="4960" y="1096" type="line"/>
    </contour>
  </outline>
</glyph>
<glyph name="three.wide" format="2">
  <advance width="5302"/>
  <outline>
    <contour>
      <point x="5163" y="-1" type="line"/>
      <point x="5163" y="1036" type="line"/>
      <point x="4837" y="1036" type="line"/>
      <point x="4837" y="1602" type="line"/>
      <point x="268" y="1602" type="line"/>
      <point x="117" y="1451" type="line"/>
      <point x="117" y="943" type="line"/>
      <point x="507" y="943" type="line"/>
      <point x="453" y="889" type="line"/>
      <point x="453" y="507" type="line"/>
      <point x="191" y="507" type="line"/>
      <point x="40" y="356" type="line"/>
      <point x="40" y="-152" type="line"/>
      <point x="5012" y="-152" type="line"/>
    </contour>
    <contour>
      <point x="517" y="947" type="line"/>
      <point x="121" y="947" type="line"/>
      <point x="121" y="1449" type="line"/>
      <point x="270" y="1598" type="line"/>
      <point x="4833" y="1598" type="line"/>
      <point x="4833" y="1032" type="line"/>
      <point x="5159" y="1032" type="line"/>
      <point x="5159" y="1" type="line"/>
      <point x="5010" y="-148" type="line"/>
      <point x="44" y="-148" type="line"/>
      <point x="44" y="354" type="line"/>
      <point x="193" y="503" type="line"/>
      <point x="457" y="503" type="line"/>
      <point x="457" y="887" type="line"/>
    </contour>
  </outline>
</glyph>
<glyph name="two.wide" format="2">
  <advance width="4761"/>
  <outline>
    <contour>
      <point x="4921" y="1602" type="line"/>
      <point x="15" y="1602" type="line"/>
      <point x="-136" y="1451" type="line"/>
      <point x="-136" y="943" type="line"/>
      <point x="-83" y="943" type="line"/>
      <point x="-139" y="887" type="line"/>
      <point x="-139" y="-152" type="line"/>
      <point x="4737" y="-152" type="line"/>
      <point x="4888" y="-1" type="line"/>
      <point x="4888" y="507" type="line"/>
      <point x="4867" y="507" type="line"/>
      <point x="4921" y="561" type="line"/>
    </contour>
    <contour>
      <point x="-73" y="947" type="line"/>
      <point x="-132" y="947" type="line"/>
      <point x="-132" y="1449" type="line"/>
      <point x="17" y="1598" type="line"/>
      <point x="4917" y="1598" type="line"/>
      <point x="4917" y="563" type="line"/>
      <point x="4857" y="503" type="line"/>
      <point x="4884" y="503" type="line"/>
      <point x="4884" y="1" type="line"/>
      <point x="4735" y="-148" type="line"/>
      <point x="-135" y="-148" type="line"/>
      <point x="-135" y="885" type="line"/>
    </contour>
  </outline>
</glyph>
